<?xml version="1.0" standalone="no"?>
<!DOCTYPE svg PUBLIC "-//W3C//DTD SVG 20010904//EN"
 "http://www.w3.org/TR/2001/REC-SVG-20010904/DTD/svg10.dtd">
<svg version="1.0" xmlns="http://www.w3.org/2000/svg"
 width="182.000000pt" height="182.000000pt" viewBox="0 0 182.000000 182.000000"
 preserveAspectRatio="xMidYMid meet">
<metadata>
Created by potrace 1.14, written by Peter Selinger 2001-2017
</metadata>
<g transform="translate(0.000000,182.000000) scale(0.100000,-0.100000)"
fill="#000000" stroke="none">
<path d="M1284 1778 c-27 -31 -38 -36 -90 -40 -92 -9 -167 -36 -215 -80 -23
-21 -47 -38 -53 -38 -19 0 -82 -71 -106 -119 -35 -69 -33 -170 4 -238 16 -29
37 -55 47 -58 35 -11 40 -29 18 -69 -24 -46 -21 -51 62 -102 33 -19 59 -41 59
-47 0 -14 54 -52 88 -62 13 -4 22 -10 20 -13 -42 -85 -74 -93 -114 -29 -26 40
-45 60 -52 53 -6 -7 29 -81 49 -102 19 -20 19 -21 -6 -34 -13 -7 -43 -35 -66
-62 -23 -28 -44 -45 -48 -40 -8 13 -212 232 -233 251 -49 43 -4 64 117 56 108
-8 105 -12 93 97 -16 160 -132 287 -265 291 l-47 2 -3 -65 c-4 -82 -20 -150
-40 -172 -20 -22 -53 -23 -53 -3 0 31 -43 62 -85 60 -40 -1 -40 -1 -46 -45 -7
-53 5 -77 43 -85 34 -8 38 -43 8 -70 -23 -20 -117 -45 -176 -45 -51 0 -57 -12
-43 -83 20 -92 71 -165 142 -202 28 -14 111 -39 165 -49 44 -8 85 9 78 32 -5
16 -9 150 -7 200 1 12 6 22 12 22 16 0 409 -391 409 -407 0 -22 37 -56 55 -50
12 5 14 1 9 -17 -4 -18 2 -28 30 -49 19 -15 39 -27 45 -27 6 0 11 -8 12 -17 1
-39 9 -79 18 -98 5 -11 12 -37 16 -58 3 -21 13 -41 21 -44 7 -3 14 -10 14 -15
0 -6 11 -19 25 -30 19 -15 24 -25 19 -44 -6 -21 -3 -24 24 -24 39 0 84 20 79
34 -3 6 0 19 5 28 6 13 2 28 -16 55 -40 62 -38 74 21 108 30 17 58 42 65 57 7
16 16 28 20 28 5 0 8 14 8 30 0 20 5 30 15 30 9 0 15 -9 15 -24 0 -34 13 -39
38 -15 15 13 22 32 22 58 0 26 7 44 21 57 54 47 77 180 50 281 -25 91 -111
165 -221 190 l-55 13 77 -5 c65 -5 78 -3 86 12 7 11 6 23 -3 37 -7 12 -16 40
-19 63 -7 52 18 88 74 104 117 35 183 177 144 309 -16 53 -65 110 -119 137
-16 9 -42 30 -57 48 -17 20 -49 40 -87 54 -50 18 -62 27 -67 49 -14 65 -17 67
-50 30z"/>
</g>
</svg>
